<svg width="179" height="40" viewBox="0 0 179 40" fill="none" xmlns="http://www.w3.org/2000/svg">
<path d="M7.62025 24.0253C7.08861 24.6203 6.53165 25.0633 5.91139 25.3544C5.29114 25.6456 4.65823 25.7975 3.98734 25.7975C1.32911 25.7975 0 24.3544 0 21.4684V13.8228H3.02532V21.2278C3.02532 21.8228 3.10127 22.2911 3.25316 22.6329C3.40506 22.9747 3.64557 23.2025 3.97468 23.3165C4.29114 23.4304 4.68354 23.4557 5.1519 23.3924C6 23.3291 6.79747 22.8354 7.5443 21.8987V13.8228H10.5696V25.519H7.62025V24.0253Z" fill="#00E8A0"/>
<path d="M18.6709 25.7975C17.7595 25.7975 16.9368 25.6582 16.2152 25.3924C15.4937 25.1266 14.8861 24.7215 14.3798 24.2025C13.8735 23.6709 13.4937 23.038 13.2152 22.2785C12.9494 21.519 12.8102 20.6582 12.8102 19.6835C12.8102 18.7089 12.9494 17.8481 13.2152 17.0886C13.4811 16.3291 13.8735 15.6835 14.3798 15.1645C14.8861 14.6456 15.4937 14.2405 16.2152 13.9747C16.9368 13.7089 17.7595 13.5696 18.6709 13.5696C19.3671 13.5696 20.0001 13.6582 20.595 13.8354C21.1773 14.0126 21.6963 14.2658 22.1266 14.6202C22.5697 14.962 22.9241 15.3924 23.1899 15.8987C23.4558 16.4051 23.633 16.9873 23.7089 17.6456H20.8861C20.8102 17.0759 20.5697 16.6329 20.1773 16.2911C19.7849 15.962 19.2785 15.7848 18.6709 15.7848C18.2532 15.7848 17.8861 15.8608 17.5444 16.0126C17.2026 16.1645 16.9114 16.4051 16.6709 16.7215C16.4304 17.038 16.2406 17.443 16.114 17.9367C15.9874 18.4304 15.9114 19.0126 15.9114 19.6709C15.9114 20.3291 15.9747 20.9114 16.114 21.3924C16.2406 21.8734 16.4304 22.2785 16.6709 22.5949C16.9114 22.9114 17.2026 23.1519 17.5444 23.3164C17.8861 23.481 18.2532 23.557 18.6709 23.557C18.9621 23.557 19.2406 23.519 19.5064 23.4304C19.7595 23.3418 19.9874 23.2278 20.1899 23.0633C20.3798 22.8987 20.5444 22.7089 20.6583 22.481C20.7722 22.2532 20.8482 22 20.8861 21.7089H23.7089C23.6203 22.3544 23.4431 22.924 23.1773 23.4304C22.9114 23.9367 22.557 24.3671 22.114 24.7215C21.6836 25.0759 21.1773 25.3418 20.595 25.519C20.0001 25.6962 19.3671 25.7975 18.6709 25.7975Z" fill="#00E8A0"/>
<path d="M28.6076 12.8861C28.6076 13.2785 28.6076 13.6835 28.5949 14.0886C28.5822 14.4937 28.5696 14.8861 28.5569 15.2658C29.6202 14.1266 30.8101 13.557 32.1519 13.557C34.8227 13.557 36.1519 15 36.1519 17.8734V25.519H33.1139V18.1013C33.1139 17.2911 32.9746 16.7089 32.6962 16.3544C32.4177 16 31.9746 15.8228 31.3417 15.8228C30.8734 15.8228 30.4177 15.962 29.962 16.2405C29.5063 16.519 29.0506 16.9114 28.6076 17.443V25.519H25.5696V9.34177H28.6076V12.8861V12.8861Z" fill="#00E8A0"/>
<path d="M46.5823 24.0253C46.0506 24.6203 45.4937 25.0633 44.8734 25.3544C44.2532 25.6456 43.6203 25.7975 42.9494 25.7975C40.2912 25.7975 38.962 24.3544 38.962 21.4684V13.8228H41.9874V21.2278C41.9874 21.8228 42.0633 22.2911 42.2152 22.6329C42.3671 22.9747 42.6076 23.2025 42.9367 23.3165C43.2532 23.4304 43.6456 23.4557 44.1139 23.3924C44.962 23.3291 45.7595 22.8354 46.5063 21.8987V13.8228H49.5317V25.519H46.5823V24.0253Z" fill="#00E8A0"/>
<path d="M56.924 25.7975C55.1772 25.7975 53.886 25.481 53.0379 24.8481C52.1898 24.2152 51.7215 23.2785 51.6455 22.0253H54.481C54.4936 22.6582 54.6961 23.1393 55.0885 23.4557C55.481 23.7848 56.0885 23.9494 56.9113 23.9494C57.6202 23.9494 58.1645 23.8101 58.5442 23.5317C58.924 23.2532 59.1139 22.8734 59.1139 22.3798C59.1139 22.1393 59.0632 21.9494 58.962 21.7975C58.8607 21.6456 58.6961 21.5063 58.4683 21.3924C58.2404 21.2785 57.9366 21.1646 57.5696 21.0633C57.2025 20.962 56.7468 20.8355 56.2025 20.6962C55.8227 20.595 55.4683 20.5063 55.1265 20.4051C54.7847 20.3038 54.443 20.2025 54.1265 20.076C53.8101 19.9494 53.5189 19.7975 53.2531 19.6329C52.9873 19.4684 52.7594 19.2658 52.5696 19.0253C52.3797 18.7848 52.2278 18.5063 52.1139 18.1899C52.0126 17.8734 51.9493 17.5063 51.9493 17.076C51.9493 16.5696 52.0632 16.1013 52.2658 15.6709C52.4683 15.2405 52.7847 14.8734 53.1898 14.557C53.5949 14.2405 54.0885 14 54.6835 13.8228C55.2784 13.6456 55.9366 13.557 56.6961 13.557C58.3164 13.557 59.5442 13.8481 60.367 14.4304C61.1898 15.0127 61.6202 15.8481 61.6582 16.9367H58.8734C58.8227 15.9367 58.1265 15.4304 56.7974 15.4304C56.2278 15.4304 55.7468 15.5443 55.3797 15.7595C55.0126 15.9747 54.8227 16.3038 54.8227 16.7342C54.8227 16.9494 54.8607 17.1266 54.924 17.2658C54.9873 17.4051 55.1139 17.5317 55.3164 17.6456C55.5063 17.7595 55.7847 17.8608 56.1518 17.962C56.5189 18.0633 56.9999 18.1899 57.5949 18.3291C58.3291 18.5063 58.9746 18.6962 59.5316 18.8861C60.0885 19.076 60.5442 19.3038 60.9113 19.5823C61.2784 19.8481 61.5569 20.1772 61.7341 20.5696C61.9113 20.962 61.9999 21.4431 61.9999 22.038C61.9999 22.5823 61.8987 23.0886 61.6961 23.5443C61.4936 24 61.1772 24.3924 60.7594 24.7215C60.3417 25.0506 59.8101 25.3165 59.1772 25.5063C58.5189 25.6962 57.7721 25.7975 56.924 25.7975Z" fill="#00E8A0"/>
<path d="M120.696 13.557C121.582 13.557 122.38 13.6836 123.101 13.9494C123.823 14.2152 124.43 14.6076 124.937 15.1266C125.443 15.6456 125.835 16.2785 126.114 17.0506C126.392 17.8101 126.532 18.6962 126.532 19.6836C126.532 20.6709 126.392 21.5443 126.114 22.3038C125.835 23.0633 125.443 23.7089 124.937 24.2279C124.43 24.7468 123.823 25.1393 123.101 25.4051C122.38 25.6709 121.582 25.8101 120.696 25.8101C119.797 25.8101 119 25.6709 118.278 25.4051C117.557 25.1393 116.949 24.7468 116.443 24.2279C115.937 23.7089 115.544 23.076 115.266 22.3038C114.987 21.5443 114.848 20.6709 114.848 19.6836C114.848 18.6836 114.987 17.8101 115.266 17.0506C115.544 16.2912 115.937 15.6456 116.443 15.1266C116.949 14.6076 117.557 14.2152 118.278 13.9494C119 13.6836 119.81 13.557 120.696 13.557ZM120.696 23.557C121.101 23.557 121.481 23.481 121.81 23.3165C122.152 23.1519 122.443 22.9241 122.671 22.595C122.911 22.2785 123.089 21.8734 123.215 21.3924C123.342 20.9114 123.405 20.3291 123.405 19.6709C123.405 19.0127 123.342 18.4304 123.215 17.9494C123.089 17.4557 122.899 17.0506 122.671 16.7342C122.43 16.4177 122.139 16.1772 121.81 16.0127C121.468 15.8481 121.101 15.7722 120.696 15.7722C120.278 15.7722 119.899 15.8481 119.557 16.0127C119.215 16.1772 118.924 16.4051 118.696 16.7342C118.456 17.0506 118.266 17.4557 118.139 17.9494C118.013 18.4431 117.937 19.0127 117.937 19.6709C117.937 20.3291 118 20.9114 118.139 21.3924C118.266 21.8734 118.456 22.2785 118.696 22.595C118.937 22.9114 119.228 23.1519 119.557 23.3165C119.899 23.481 120.278 23.557 120.696 23.557Z" fill="#00E8A0"/>
<path d="M131.709 15.3038C132.772 14.1393 133.987 13.557 135.329 13.557C138 13.557 139.329 15 139.329 17.8734V25.519H136.291V18.1013C136.291 17.5063 136.215 17.038 136.076 16.6962C135.937 16.3544 135.696 16.1266 135.367 16.0127C135.025 15.8987 134.633 15.8734 134.19 15.9367C133.38 16 132.582 16.4937 131.772 17.4304V25.5063H128.734V13.8101H131.684V15.3038H131.709Z" fill="#00E8A0"/>
<path d="M145.215 25.519H142.177V9.34177H145.215V25.519Z" fill="#00E8A0"/>
<path d="M151.152 11.8608H148.114V9.27847H151.152V11.8608ZM151.152 25.519H148.114V13.8228H151.152V25.519Z" fill="#00E8A0"/>
<path d="M157.013 15.3038C158.076 14.1393 159.291 13.557 160.633 13.557C163.304 13.557 164.633 15 164.633 17.8734V25.519H161.595V18.1013C161.595 17.5063 161.519 17.038 161.38 16.6962C161.24 16.3544 161 16.1266 160.671 16.0127C160.329 15.8987 159.937 15.8734 159.494 15.9367C158.684 16 157.886 16.4937 157.076 17.4304V25.5063H154.038V13.8101H156.987V15.3038H157.013Z" fill="#00E8A0"/>
<path d="M172.848 25.7975C171.886 25.7975 171.025 25.6582 170.278 25.3671C169.532 25.0886 168.911 24.6836 168.392 24.1519C167.886 23.6203 167.494 22.9874 167.215 22.2279C166.949 21.4684 166.81 20.6203 166.81 19.6709C166.81 18.7089 166.949 17.8481 167.215 17.0886C167.481 16.3291 167.861 15.6962 168.367 15.1646C168.873 14.6329 169.481 14.2405 170.203 13.962C170.924 13.6836 171.747 13.5443 172.671 13.5443C173.557 13.5443 174.354 13.6709 175.063 13.9367C175.772 14.2025 176.38 14.5823 176.886 15.1013C177.392 15.6203 177.785 16.2532 178.051 17C178.316 17.7468 178.456 18.6076 178.456 19.5696V20.3038H169.924C169.949 20.9114 170.038 21.443 170.19 21.8861C170.342 22.3291 170.544 22.6962 170.81 22.9747C171.063 23.2532 171.367 23.4684 171.709 23.6076C172.051 23.7468 172.43 23.8101 172.835 23.8101C173.468 23.8101 174 23.6709 174.443 23.4051C174.886 23.1392 175.203 22.6709 175.405 22.0127H178.24C178.127 22.6203 177.924 23.1519 177.608 23.6203C177.304 24.0886 176.911 24.481 176.443 24.8101C175.975 25.1266 175.443 25.3798 174.835 25.5443C174.228 25.7089 173.57 25.7975 172.848 25.7975ZM175.405 18.4684C175.291 17.443 174.987 16.6836 174.519 16.1899C174.051 15.6836 173.43 15.443 172.684 15.443C171.937 15.443 171.329 15.6962 170.861 16.1899C170.392 16.6962 170.089 17.4557 169.975 18.4684H175.405Z" fill="#00E8A0"/>
<path d="M88.4304 0C77.3924 0 68.4304 8.94937 68.4304 20C68.4304 31.0506 77.3798 40 88.4304 40C99.4811 40 108.43 31.0506 108.43 20C108.43 8.94937 99.4811 0 88.4304 0ZM88.0507 12.8228C88.519 13.1646 88.9621 13.519 89.3798 13.8861C86.5697 18.1519 89.633 22.9114 94.3165 22.6456C94.4178 23.2025 94.5064 23.7722 94.5697 24.3544H81.3924L88.0507 12.8228ZM91.1519 15.7215C92.2279 17.038 93.0633 18.519 93.6583 20.1772C91.4937 20.1392 89.9114 17.7595 91.1519 15.7215Z" fill="#00E8A0"/>
<path d="M88.5 10L97.5933 25.75H79.4067L88.5 10Z" fill="white"/>
<path d="M97.0886 24.3671C96.4937 18.6329 93.8987 14.0633 89.3164 10.6456L91.2278 7.34177L88.3797 5.6962L77.5949 24.3671L75.7468 27.5696H100.772V24.3671H97.0886ZM91.1519 15.7215C92.2278 17.038 93.0633 18.519 93.6582 20.1772C91.4937 20.1392 89.9114 17.7595 91.1519 15.7215ZM81.3924 24.3671L88.0506 12.8228C88.519 13.1646 88.962 13.519 89.3797 13.8861C86.5696 18.1519 89.6329 22.9114 94.3164 22.6456C94.4177 23.2025 94.5063 23.7721 94.5696 24.3544H81.3924V24.3671Z" fill="#000105"/>
</svg>
