<svg width="40" height="39" viewBox="0 0 40 39" fill="none" xmlns="http://www.w3.org/2000/svg">
<path d="M20.2197 0C9.4577 0 0.719727 8.72563 0.719727 19.5C0.719727 30.2744 9.44536 39 20.2197 39C30.9941 39 39.7197 30.2744 39.7197 19.5C39.7197 8.72563 30.9941 0 20.2197 0ZM19.8495 12.5022C20.3061 12.8354 20.7381 13.181 21.1454 13.5389C18.4055 17.6981 21.3922 22.3386 25.9587 22.0794C26.0574 22.6225 26.1438 23.1778 26.2055 23.7456H13.3577L19.8495 12.5022ZM22.8732 15.3285C23.9223 16.612 24.7368 18.056 25.3169 19.6728C23.2064 19.6358 21.6637 17.3155 22.8732 15.3285Z" fill="#00E8A0"/>
<path d="M20.2875 9.75L29.1535 25.1063H11.4216L20.2875 9.75Z" fill="white"/>
<path d="M28.6614 23.7579C28.0813 18.1671 25.5512 13.7117 21.0835 10.3794L22.9471 7.15823L20.1702 5.5538L9.65505 23.7579L7.85315 26.8804H32.2528V23.7579H28.6614ZM22.8731 15.3285C23.9221 16.612 24.7367 18.056 25.3168 19.6728C23.2063 19.6358 21.6636 17.3155 22.8731 15.3285ZM13.3576 23.7579L19.8493 12.5022C20.306 12.8354 20.738 13.181 21.1452 13.5389C18.4054 17.6981 21.3921 22.3386 25.9585 22.0794C26.0573 22.6225 26.1437 23.1779 26.2054 23.7456H13.3576V23.7579Z" fill="#000105"/>
</svg>
